<svg width="1920" height="1080" viewBox="0 0 1920 1080" fill="none" xmlns="http://www.w3.org/2000/svg">
<g clip-path="url(#clip0_653_44000)">
<rect width="1920" height="1080" fill="url(#paint0_radial_653_44000)"/>
<path d="M819.52 93.2357C780.242 104.686 778.625 124.14 752.42 143.943C726.216 163.745 547.848 229 547.848 229H322V0H1011C1011 0 970.349 48.3211 935.717 67.0643C894.814 89.2023 858.798 81.7857 819.52 93.2357Z" fill="#FEF7D9"/>
<path d="M184.837 501.831C159.66 537.329 70 540 70 540V276L452 250C452 250 436.097 350.139 376.728 368.241C341.213 379.069 294.209 341.932 264.35 364C247.045 376.789 260.376 400.048 248.447 407.47C232.487 417.399 223.052 401.769 207.1 411.711C178.217 429.713 204.526 474.07 184.837 501.831Z" fill="#3DB1B0"/>
<path d="M530.145 139.609C511.381 147.787 526.776 173.296 493.082 176.665C434.203 182.551 392 289.516 392 289.516C392 289.516 462.622 359.928 520.037 361.942C574.78 363.863 608.07 317.44 659.867 299.621C689.007 289.596 709.255 297.781 733.993 279.409C751.645 266.299 739.597 248.817 759.264 238.985C786.219 225.51 853.84 181.967 824.967 149.715C805.916 128.436 780.271 141.341 752.525 134.556C709.559 124.048 691.817 89.2574 648.074 95.8167C614.38 100.869 615.584 131.822 587.425 139.609C565.865 145.571 550.651 130.673 530.145 139.609Z" fill="#F16734"/>
<path d="M149.63 364.994C84.8589 401.651 0 483 0 483V0H534C534 0 530.92 39.6815 510.663 50.7699C453.008 82.3295 387.291 55.1156 367.897 69.9801C362 74.5 348.673 83.1055 348.679 111.145C348.685 142.705 485.954 104.284 499.681 166.031C512.848 225.255 452.363 262.539 396.725 286.781C289.65 333.435 237.711 315.146 149.63 364.994Z" fill="#1D2A68"/>
<path d="M38.6678 358.563C-3.33827 388.629 -33 433.612 -33 433.612V741.5C-33 741.5 21.7372 724.78 47.5 711C112 676.5 154.005 634.666 154.922 566.49C155.698 508.707 69.2616 499.828 74.3366 442.261C78.8216 391.386 193.062 377.405 160.5 338C155.151 331.527 144.353 326.657 132.794 323.963C97.4549 315.727 58 344.726 38.6678 358.563Z" fill="#DB408B"/>
<path d="M24.1259 279.596C15.6065 284.06 0 284.444 0 284.444L1.2063 362C1.2063 362 11.0337 351.806 20.507 343.823C34.8755 331.713 50.6947 338.606 61.5211 323.222C70.9099 309.88 59.7935 298.804 67.5526 284.444C81.4227 258.774 113.688 267.769 132.693 245.665C140.984 236.021 142.303 228.439 151.993 220.216C162.019 211.71 183.357 216.581 185.77 205.675C187.578 197.502 178.402 191.709 170.088 191.133C135.105 188.709 127.379 220.101 97.71 227.488C77.0879 232.622 62.1288 223.862 44.633 235.971C27.8036 247.618 34.9826 273.909 24.1259 279.596Z" fill="#F16734"/>
<path d="M85.3452 714.19C57.0181 736.998 0 751.624 0 751.624V835C0 835 21.8051 826.86 35.845 816.283C54.886 801.937 56.2046 778.943 76.8107 766.938C88.8277 759.937 93.7539 761.929 105.828 755.027C119.73 747.079 126.337 740.566 133.139 726.101C141.626 708.05 138.057 696.7 139.966 676.856C141.714 658.693 175.364 629.4 163.454 615.544C158.02 609.222 144.291 615.959 139.966 621.887C126.311 640.604 129.725 678.457 85.3452 714.19Z" fill="#FDF6DA"/>
<path d="M361.194 339.666C353.221 342.927 345.421 337.91 340.641 345.064C338.477 348.302 342.264 352.62 344.968 353.7C355.785 358.017 361.597 355.661 369.848 351.54C380.83 346.056 392.566 334.269 393.647 331.03C394.367 328.871 396.808 324.304 392.566 320.235C382.621 310.698 373.957 334.446 361.194 339.666Z" fill="#DF3784"/>
<path d="M42 -87.1L92.5 -116L143 -87.1M42 -87.1L92.5 -58.2M42 -87.1V144.1L92.5 173M143 -87.1L92.5 -58.2M143 -87.1V144.1L92.5 173M92.5 -58.2V173" stroke="white" stroke-width="3"/>
<path d="M139.309 166.235C135.586 174.374 122.108 174.847 124.224 183.537C126.383 192.401 136.345 191.997 145.112 189.303C151.847 187.234 153.187 183.835 156.716 177.769C162.632 167.601 157.656 160.568 164.839 151.24C172.596 141.168 184.033 149.027 192.689 139.707C201.19 130.552 196.605 120.649 199.651 108.564C201.361 101.781 208.755 102.537 206.614 95.8764C202.665 83.5898 180.764 89.4088 174.122 100.49C169.484 108.229 175.961 113.248 171.801 121.252C165.617 133.15 151.616 121.771 143.952 132.786C136.476 143.529 144.75 154.344 139.309 166.235Z" fill="#DB4089"/>
<path d="M-1.4 235.714V256M-1.4 235.714L-37 215.429M-1.4 235.714L52 205.286M-1.4 256L-37 235.714V215.429M-1.4 256L52 225.571V205.286M-37 215.429L16.4 185L52 205.286" stroke="white" stroke-width="3"/>
<path d="M156 218L212 186L240 202M156 218L184 234M156 218V281.5L184 298M240 202L184 234M240 202V266L184 298M184 234V298" stroke="white" stroke-width="3"/>
<path d="M322 185.667L360 207.333M322 185.667L360 164L398 185.667M322 185.667V207.333L360 229M360 207.333L398 185.667M360 207.333V229M398 185.667V207.333L360 229" stroke="white" stroke-width="3"/>
<path d="M279 282.167L316 261L353 282.167M279 282.167L316 303.333M279 282.167V366.833L316 388M353 282.167L316 303.333M353 282.167V366.833L316 388M316 303.333V388" stroke="white" stroke-width="3"/>
<path d="M472 365.286L504.6 383.857M472 365.286V402.429L504.6 421M472 365.286L602.4 291L635 309.571M504.6 383.857V421M504.6 383.857L635 309.571M504.6 421L635 346.714V309.571" stroke="white" stroke-width="3"/>
<path d="M494 253L466 269M494 253V285L466 301M494 253L438 221L410 237M466 269V301M466 269L410 237M466 301L410 269V237" stroke="white" stroke-width="3"/>
<path d="M198 500.857L237.333 523.286M198 500.857L276.667 456L316 478.429M198 500.857V590.571L237.333 613M237.333 523.286L316 478.429M237.333 523.286V613M316 478.429V523.286L276.667 545.714V590.571L237.333 613" stroke="white" stroke-width="3"/>
<path d="M1039 28.4286L1075.6 49.2857M1039 28.4286V70.1429L1075.6 91M1039 28.4286L1185.4 -55L1222 -34.1429M1075.6 49.2857V91M1075.6 49.2857L1222 -34.1429M1075.6 91L1222 7.57143V-34.1429" stroke="white" stroke-width="4"/>
<path d="M1887.51 455.553C1903.68 447.409 1920 448.062 1920 448.062V627.839L1851.27 661.548C1851.27 661.548 1803.69 692.759 1745 685.268C1721.09 682.216 1694.98 674.256 1697.57 650.311C1702.58 603.844 1779.08 622.975 1813.78 591.634C1853.72 555.569 1839.44 479.761 1887.51 455.553Z" fill="#1F2968"/>
<path d="M966.583 939.466C945.679 947.436 924.741 975.857 924.741 975.857V1091.77H1526.72V849.163C1526.72 849.163 1505.58 810.962 1482.18 808.729C1466.75 807.257 1459.75 818.808 1444.39 820.859C1417.84 824.403 1403.2 803.703 1376.9 808.729C1338.07 816.15 1302.66 877.467 1302.66 877.467C1302.66 877.467 1242.46 907.349 1201.44 905.771C1170.25 904.571 1153.29 872.176 1124.5 884.206C1096.82 895.776 1109.65 933.093 1094.81 943.51C1055.8 970.878 1040.82 911.162 966.583 939.466Z" fill="#F16734"/>
<path d="M781.065 1027.63C759.552 1045.14 755 1084.35 755 1084.35H1016.78C1016.78 1084.35 1026.98 1075.5 1028.11 1065.06C1029.55 1051.82 1031.9 1045.98 1023.58 1035.57C1014.52 1024.23 970.318 1048.05 955.586 1036.71C935.942 1021.58 968.052 990.196 954.453 975.449C933.685 952.928 889.857 999.426 871.725 1004.94C845.66 1012.87 807.665 1005.98 781.065 1027.63Z" fill="#1D2A68"/>
<path d="M1121.28 1053.37C1107.49 1065.41 1100.98 1081.52 1100.98 1081.52V1098.73L1895.88 1111.25V773.355L1752.21 745.198C1752.21 745.198 1729.38 716.821 1700.67 717.04C1611.8 717.719 1618.09 828.339 1536.69 864.085C1474.52 891.388 1380.75 881.959 1322.74 917.272C1271.21 948.635 1280.76 998.526 1227.47 1026.77C1188.99 1047.17 1154.09 1024.71 1121.28 1053.37Z" fill="#3DB1B0"/>
<path d="M1286.83 1044.94C1277.47 1057.95 1272.57 1083.42 1272.57 1083.42H1920V576.051C1920 576.051 1828.97 618.521 1791.65 657.287C1759.52 690.675 1774.49 712.852 1741.74 745.649C1714.89 772.545 1692.24 767.888 1666.16 795.531C1639.33 823.972 1656.2 837.309 1630.51 866.79C1562.72 944.599 1396.53 871.281 1345.3 960.853C1330.53 986.681 1345.96 995.128 1326.76 1017.86C1313.31 1033.79 1299 1028.02 1286.83 1044.94Z" fill="#FEF7D9"/>
<path d="M1287.75 801.279C1271.81 813.393 1278.1 830.776 1271.4 849.755C1265.94 865.179 1231.05 883.908 1250.68 911.451C1264.37 930.665 1291.62 910.162 1309.56 894.925C1318.82 887.054 1321.6 880.22 1329.19 870.687C1338.69 858.745 1354.63 855.09 1353.18 839.839C1352.2 829.623 1340.18 826.41 1334.64 817.805C1329.1 809.2 1331.37 806.788 1325.92 801.279C1314.38 789.618 1297.57 793.821 1287.75 801.279Z" fill="#DB408B"/>
<path d="M1341.21 751.345C1341.39 740.884 1333.31 732.894 1323.1 731.944C1311.88 730.899 1302.84 742.617 1303.19 754.117C1303.5 764.317 1309.53 768.899 1319.48 769.823C1330.48 770.843 1341.01 762.615 1341.21 751.345Z" fill="#DC3687"/>
<path d="M1901.29 659.408C1907.9 653.501 1920 646.545 1920 646.545V835.988C1920 835.988 1900.55 847.035 1879.07 860.546C1851.83 877.676 1825.27 916.677 1793.7 915.508C1774.01 914.779 1767.31 901.614 1758.62 883.934C1736.09 838.112 1802.08 817.623 1814.75 768.163C1818.33 754.194 1818.26 745.679 1825.28 733.081C1836.44 713.031 1860.6 711.987 1876.73 695.66C1888.75 683.494 1888.54 670.799 1901.29 659.408Z" fill="#3BB2B0"/>
<path d="M1674.06 909.944C1665.69 919.91 1671 929.356 1662.66 939.347C1657.91 945.038 1640.81 950.729 1640.81 973.492C1640.81 983.925 1647.86 991.64 1660.76 990.565C1676.44 989.257 1684.93 967.709 1698.76 960.214C1714.63 951.616 1727.37 958.722 1744.36 952.626C1757.8 947.806 1776.67 935.553 1776.67 935.553C1776.67 935.553 1801.37 881.49 1788.07 866.314C1778.1 854.943 1763.36 855.881 1754.81 859.675C1739.4 866.512 1740.95 879.237 1727.26 889.078C1711.08 900.716 1686.88 894.687 1674.06 909.944Z" fill="#1D2A68"/>
<path d="M1809.59 885.743C1788.38 880.265 1770.3 903.334 1761.67 923.41C1758.9 929.841 1754.45 951.106 1767.2 959.238C1785.88 971.15 1817.03 951.475 1821.57 929.84C1825.54 910.98 1828.31 890.576 1809.59 885.743Z" fill="#F16734"/>
<path d="M1646.19 1020.38C1611.54 1013.93 1581.99 1041.12 1567.89 1064.78C1563.38 1072.36 1556.1 1097.42 1576.93 1107C1607.45 1121.04 1658.34 1097.85 1665.77 1072.36C1672.25 1050.13 1676.77 1026.08 1646.19 1020.38Z" fill="#1D2A68"/>
<path d="M1125.09 968.868L1158.48 949.853L1191.88 968.868M1125.09 968.868L1158.48 987.882M1125.09 968.868V1120.99L1158.48 1140M1191.88 968.868L1158.48 987.882M1191.88 968.868V1120.99L1158.48 1140M1158.48 987.882V1140" stroke="white" stroke-width="4"/>
<path d="M892.277 1018.76L922.515 1035.98M892.277 1018.76V1053.21L922.515 1070.43M892.277 1018.76L1013.23 949.853L1043.47 967.079M922.515 1035.98V1070.43M922.515 1035.98L1043.47 967.079M922.515 1070.43L1043.47 1001.53V967.079" stroke="white" stroke-width="4"/>
<path d="M938.388 991.883C932.945 988.677 921.31 992.089 913.892 998.723C906.224 1005.58 903.237 1015.42 909.81 1023.35C915.267 1029.92 924.78 1025.3 926.14 1024.71C938.656 1019.31 950.14 998.808 938.388 991.883Z" fill="#3DB1B0"/>
<path d="M1187.28 983.208C1180.8 983.208 1174.95 987.145 1174.32 993.629C1173.77 999.246 1176.52 1001.51 1182.08 1002.31C1188.12 1003.18 1210.51 1008.21 1225.3 999.708C1243.43 989.286 1263.31 947.602 1258.99 945.866C1256.83 944.998 1253.8 944.998 1250.35 945.866C1231.78 950.532 1230.95 980.455 1212.34 984.945C1202.8 987.245 1195.91 983.208 1187.28 983.208Z" fill="#DB408B"/>
<path d="M1376.46 779.184L1425.15 751.357L1473.85 779.184M1376.46 779.184L1425.15 807.01M1376.46 779.184V834.837L1425.15 862.663M1473.85 779.184L1425.15 807.01M1473.85 779.184V834.837L1425.15 862.663M1425.15 807.01V862.663" stroke="white" stroke-width="4"/>
<path d="M1790.14 559.355L1811.71 571.722M1790.14 559.355V584.09L1811.71 596.457M1790.14 559.355L1833.27 534.62M1811.71 571.722V596.457M1811.71 571.722L1854.84 546.988M1811.71 596.457L1876.41 559.355V460.417M1833.27 534.62V460.417M1833.27 534.62L1854.84 546.988M1833.27 460.417L1854.84 472.784M1833.27 460.417L1854.84 448.049L1876.41 460.417M1854.84 472.784V546.988M1854.84 472.784L1876.41 460.417" stroke="white" stroke-width="4"/>
<path d="M1821.68 939.65V969.331M1821.68 939.65L1873.62 909.968M1821.68 939.65L1743.77 895.127M1821.68 969.331L1873.62 939.65V909.968M1821.68 969.331L1743.77 924.809V895.127M1873.62 909.968L1795.71 865.446L1743.77 895.127" stroke="white" stroke-width="4"/>
</g>
<defs>
<radialGradient id="paint0_radial_653_44000" cx="0" cy="0" r="1" gradientUnits="userSpaceOnUse" gradientTransform="translate(960 540) rotate(90) scale(1418.5 2521.78)">
<stop offset="0.156249" stop-color="#FEF7D9"/>
<stop offset="0.835698" stop-color="#3DB1B0"/>
</radialGradient>
<clipPath id="clip0_653_44000">
<rect width="1920" height="1080" fill="white"/>
</clipPath>
</defs>
</svg>
