<svg width="63" height="75" viewBox="0 0 63 75" fill="none" xmlns="http://www.w3.org/2000/svg">
<path fill-rule="evenodd" clip-rule="evenodd" d="M44.0592 0.119394C41.8691 0.28084 40.1929 0.575015 36.033 1.52807C29.9944 2.91145 27.0944 3.85379 23.5049 5.59845C17.2867 8.62114 12.7592 11.824 8.51585 16.2024C6.22402 18.5671 5.33714 19.6489 3.65377 22.1323C2.19019 24.2915 1.20031 26.2014 0.545695 28.1295C0.154051 29.2828 0.0704978 29.7815 0.0144003 31.3029C-0.0842899 33.9798 0.307355 34.7802 1.71588 34.7802C2.56996 34.7802 3.0453 34.3305 3.15112 33.4226C3.19282 33.0644 3.29789 32.1645 3.38471 31.4226C3.65718 29.091 4.52655 27.0183 6.46978 24.0667C8.00415 21.7361 9.65695 19.7606 11.9506 17.5159C17.4968 12.0878 24.8668 7.83161 32.9287 5.40099C38.4169 3.74621 45.6186 2.82009 49.8713 3.22199C54.4016 3.65008 57.1803 5.01159 58.3387 7.37064C58.8047 8.31967 58.8254 8.43574 58.8213 10.0765C58.8162 12.1102 58.5822 13.1065 57.642 15.0965C56.4772 17.5621 53.5395 21.706 50.6021 25.0271C48.7583 27.1117 45.2268 30.5493 43.0945 32.335C42.115 33.1553 39.21 35.4602 36.6388 37.4568C27.2039 44.7836 26.1492 45.6306 25.1893 46.6507C23.9042 48.0166 23.3727 49.1125 23.3635 50.415C23.3534 51.8252 23.8735 52.6338 25.2858 53.4039C25.8571 53.7157 26.7427 54.1112 27.2536 54.2831C28.3928 54.6664 28.537 54.8991 28.4379 56.1942C28.3339 57.5559 27.8478 58.7357 27.0079 59.6663C26.1758 60.5878 26.0569 60.85 26.3123 61.2001C26.4693 61.4156 26.6553 61.4467 27.389 61.3798C30.1988 61.1245 34.2384 58.0707 34.6348 55.9026C34.6986 55.5533 34.6463 55.1618 34.48 54.7452C34.1419 53.898 33.3686 53.4641 31.5162 53.0818C29.7041 52.708 27.0916 51.9622 26.4085 51.6237C26.128 51.4849 25.7697 51.1944 25.6124 50.9782C25.3628 50.6354 25.3488 50.5168 25.5032 50.048C25.8086 49.1199 28.9913 46.3915 33.8191 42.919C40.4683 38.1366 45.9647 33.7697 50.218 29.8899C51.9643 28.2969 55.3766 24.8647 56.4245 23.6472C59.2555 20.3582 61.6616 16.2832 62.3271 13.6508C62.7123 12.1265 62.7897 9.26886 62.4799 7.99648C61.5732 4.27161 58.3946 1.57479 53.7001 0.547487C51.3312 0.0290739 47.5565 -0.138474 44.0592 0.119394ZM31.2459 9.81926C30.9665 10.0765 30.3654 11.7041 28.6495 16.85C22.8317 34.2976 19.3909 45.4193 16.4731 56.2072C14.4067 63.8472 12.4486 71.9615 12.4486 72.8845C12.4486 73.9475 13.3379 74.9726 14.2832 74.9994C15.4099 75.0314 16.7132 73.8457 16.5396 72.947C16.2486 71.4419 16.2281 71.5457 19.0322 60.3735C20.5421 54.3583 22.5095 46.9259 23.4046 43.8569C27.6751 29.2122 31.7365 14.5665 32.3253 11.6883C32.5744 10.4706 32.5822 10.266 32.3928 9.89887C32.1332 9.39549 31.7361 9.36796 31.2459 9.81926Z" fill="white"/>
</svg>
