<svg width="100" height="100" viewBox="0 0 100 100" fill="none" xmlns="http://www.w3.org/2000/svg">
<circle cx="50" cy="50" r="50" fill="url(#paint0_radial_642_44048)"/>
<path fill-rule="evenodd" clip-rule="evenodd" d="M57.7148 27.0716C56.3869 27.1685 55.3705 27.345 52.8482 27.9168C49.1868 28.7469 47.4284 29.3123 45.2519 30.3591C41.4816 32.1727 38.7364 34.0944 36.1635 36.7215C34.7739 38.1403 34.2361 38.7893 33.2154 40.2794C32.328 41.5749 31.7278 42.7208 31.3309 43.8777C31.0934 44.5697 31.0427 44.8689 31.0087 45.7818C30.9489 47.3879 31.1864 47.8681 32.0404 47.8681C32.5583 47.8681 32.8465 47.5983 32.9106 47.0535C32.9359 46.8386 32.9996 46.2987 33.0523 45.8535C33.2175 44.4546 33.7446 43.211 34.9229 41.44C35.8532 40.0416 36.8554 38.8564 38.2461 37.5095C41.609 34.2527 46.0777 31.699 50.9659 30.2406C54.2937 29.2477 58.6603 28.6921 61.2389 28.9332C63.9858 29.19 65.6707 30.007 66.373 31.4224C66.6555 31.9918 66.6681 32.0614 66.6656 33.0459C66.6626 34.2661 66.5207 34.8639 65.9506 36.0579C65.2443 37.5373 63.4631 40.0236 61.682 42.0162C60.564 43.267 58.4228 45.3296 57.1299 46.401C56.536 46.8932 54.7745 48.2761 53.2156 49.4741C47.4948 53.8702 46.8553 54.3783 46.2732 54.9904C45.4941 55.8099 45.1717 56.4675 45.1662 57.249C45.1601 58.0951 45.4754 58.5803 46.3317 59.0424C46.6782 59.2294 47.2151 59.4667 47.5249 59.5698C48.2157 59.7998 48.3031 59.9394 48.243 60.7165C48.1799 61.5335 47.8852 62.2414 47.3759 62.7998C46.8714 63.3527 46.7993 63.51 46.9542 63.7201C47.0494 63.8493 47.1621 63.868 47.607 63.8279C49.3107 63.6747 51.7601 61.8424 52.0004 60.5415C52.0391 60.332 52.0074 60.0971 51.9065 59.8471C51.7016 59.3388 51.2327 59.0784 50.1095 58.8491C49.0108 58.6248 47.4267 58.1773 47.0125 57.9742C46.8424 57.8909 46.6252 57.7167 46.5298 57.5869C46.3784 57.3812 46.37 57.3101 46.4636 57.0288C46.6488 56.4719 48.5786 54.8349 51.5058 52.7514C55.5375 49.882 58.8702 47.2618 61.4491 44.934C62.508 43.9781 64.577 41.9188 65.2124 41.1883C66.9289 39.2149 68.3878 36.7699 68.7913 35.1905C69.0249 34.2759 69.0718 32.5613 68.884 31.7979C68.3342 29.563 66.4069 27.9449 63.5604 27.3285C62.1241 27.0174 59.8354 26.9169 57.7148 27.0716ZM49.9456 32.8916C49.7762 33.0459 49.4117 34.0225 48.3713 37.11C44.8438 47.5786 42.7575 54.2516 40.9883 60.7243C39.7353 65.3083 38.5481 70.1769 38.5481 70.7307C38.5481 71.3685 39.0873 71.9835 39.6605 71.9996C40.3436 72.0188 41.1339 71.3074 41.0286 70.7682C40.8521 69.8651 40.8397 69.9275 42.54 63.2241C43.4555 59.615 44.6484 55.1555 45.1911 53.3141C47.7805 44.5273 50.2431 35.7399 50.6001 34.013C50.7511 33.2823 50.7558 33.1596 50.641 32.9393C50.4836 32.6373 50.2428 32.6208 49.9456 32.8916Z" fill="white"/>
<path fill-rule="evenodd" clip-rule="evenodd" d="M72.2628 77.7459C93.8364 60.5085 101.349 34.0484 89.0416 18.6456C76.7347 3.24275 49.2692 4.72993 27.6956 21.9673C6.12199 39.2047 -1.39014 65.6648 10.9168 81.0676C23.2237 96.4704 50.6892 94.9832 72.2628 77.7459Z" fill="url(#paint1_linear_642_44048)" fill-opacity="0.2"/>
<defs>
<radialGradient id="paint0_radial_642_44048" cx="0" cy="0" r="1" gradientUnits="userSpaceOnUse" gradientTransform="translate(26.5 28.5) rotate(71.8058) scale(75.2629)">
<stop stop-color="#B3D3DE"/>
<stop offset="1" stop-color="#0081AD"/>
</radialGradient>
<linearGradient id="paint1_linear_642_44048" x1="27.6957" y1="21.9675" x2="72.263" y2="77.746" gradientUnits="userSpaceOnUse">
<stop stop-color="white" stop-opacity="0"/>
<stop offset="1" stop-color="white" stop-opacity="0.68"/>
</linearGradient>
</defs>
</svg>
