<svg width="100" height="100" viewBox="0 0 100 100" fill="none" xmlns="http://www.w3.org/2000/svg">
<circle cx="50" cy="50" r="50" fill="url(#paint0_radial_793_44019)"/>
<path fill-rule="evenodd" clip-rule="evenodd" d="M72.2628 77.7459C93.8364 60.5085 101.349 34.0484 89.0416 18.6456C76.7347 3.24275 49.2692 4.72993 27.6956 21.9673C6.12199 39.2047 -1.39014 65.6648 10.9168 81.0676C23.2237 96.4704 50.6892 94.9832 72.2628 77.7459Z" fill="url(#paint1_linear_793_44019)" fill-opacity="0.2"/>
<path d="M24.9402 78C24.8616 77.9634 24.7858 77.9188 24.7046 77.8903C22.9312 77.2634 22.4256 75.2059 23.7414 73.8594C25.2549 72.3103 26.7941 70.7864 28.336 69.2651C28.581 69.0234 28.6649 68.8291 28.539 68.4791C28.1329 67.3221 28.3698 66.3248 29.2836 65.4562C30.4762 64.3222 31.6194 63.1361 32.7816 61.9689C33.1261 61.6223 33.5099 61.5038 33.9323 61.7956C34.379 62.1036 34.3837 62.6351 33.9323 63.09C32.8141 64.2247 31.6837 65.3465 30.5574 66.4751C29.8664 67.1725 29.7987 67.4135 30.1892 68.3186C30.7578 69.6415 31.7318 70.5338 33.1078 70.9739C33.5464 71.1141 33.9343 71.0694 34.2876 70.7153C39.2427 65.7505 44.2018 60.7873 49.165 55.8256C49.219 55.7665 49.2698 55.7046 49.3173 55.6401L45.248 51.578C45.158 51.7276 45.0788 51.9423 44.9319 52.0898C42.1672 54.8683 39.3972 57.6418 36.6221 60.4104C36.5015 60.5429 36.3717 60.6667 36.2336 60.7807C35.8715 61.0515 35.489 61.059 35.1635 60.7408C34.8379 60.4226 34.8325 60.0408 35.0998 59.6731C35.2123 59.534 35.3354 59.4038 35.4681 59.2838C38.2265 56.5243 40.9845 53.7652 43.742 51.0066C43.893 50.8556 44.0642 50.7243 44.2693 50.5462C44.0906 50.3547 43.9647 50.2132 43.8307 50.0791C42.5162 48.7616 41.2011 47.4446 39.8853 46.128C38.7204 44.9575 38.717 43.5642 39.8853 42.395C43.1089 39.1642 46.3353 35.9371 49.5644 32.7136C50.7408 31.539 52.1249 31.5349 53.2959 32.7014C53.9166 33.3195 54.5224 33.9519 55.1911 34.6357C55.2696 34.4366 55.3218 34.3168 55.3644 34.1929C56.3262 31.4171 58.082 29.1789 60.1857 27.1912C61.9029 25.5663 63.7785 24.1446 66.0588 23.4358C69.7998 22.2774 72.9202 23.5035 75.5274 26.2251C76.8859 27.6468 77.644 29.3935 77.9066 31.3487C77.9281 31.4323 77.9594 31.513 78 31.5891V33.417C76.8128 38.3166 73.5767 41.6441 69.5392 44.3211C68.5991 44.9453 67.5087 45.344 66.4433 45.8694C67.1283 46.5464 67.8464 47.262 68.5632 47.9763C68.9307 48.3426 69.3077 48.6993 69.6584 49.0825C70.5031 50.008 70.5491 51.4081 69.6807 52.3038C67.862 54.1798 66.0006 56.0145 64.1467 57.8553C63.767 58.2331 63.2817 58.2169 62.9595 57.8675C62.6373 57.5182 62.6671 57.0774 63.0623 56.68C64.7653 54.9649 66.4724 53.255 68.1835 51.5503C68.8698 50.8631 68.8658 50.553 68.1666 49.853L52.3036 33.9783C51.5956 33.2708 51.2883 33.2715 50.5722 33.9864C47.4329 37.1251 44.2943 40.2644 41.1564 43.4044C40.4511 44.1098 40.4464 44.4077 41.1341 45.0969L56.9266 60.8938C57.0281 60.9953 57.1297 61.0969 57.2325 61.1957C57.6867 61.6196 58.1003 61.6284 58.545 61.1957C59.2367 60.5187 59.9109 59.8275 60.5979 59.1478C61.05 58.7009 61.5083 58.663 61.865 59.0266C62.2217 59.3901 62.1736 59.839 61.7222 60.2946C61.0453 60.9825 60.3623 61.6683 59.6719 62.3446C58.589 63.4055 57.1764 63.4096 56.0927 62.3372C54.3755 60.6379 52.6739 58.9223 50.9641 57.2142C50.8288 57.0788 50.6846 56.9434 50.3908 56.6665C50.2649 56.8696 50.1823 57.0842 50.0341 57.2325C45.218 62.0619 40.4008 66.8886 35.5824 71.7125C34.6822 72.6191 33.6913 72.8953 32.5149 72.4715C32.1568 72.3422 31.9673 72.4464 31.7311 72.6861C30.3774 74.0631 29.0237 75.4483 27.6246 76.78C27.1203 77.2553 26.482 77.5938 25.9074 78H24.9402ZM60.2656 29.3454C59.7965 29.9128 59.3694 30.3928 58.9836 30.9026C57.9216 32.3121 57.0207 33.8009 56.6768 35.574C56.6146 35.8969 56.6931 36.1028 56.9192 36.3282C59.5075 38.9009 62.0881 41.4835 64.6611 44.076C64.9095 44.3258 65.1349 44.3766 65.4659 44.3082C67.5479 43.8783 69.2367 42.7267 70.8388 41.4119C71.0947 41.2021 71.3329 40.9705 71.67 40.6672C71.4561 40.5054 71.2828 40.4032 71.1441 40.2651C69.002 38.1297 66.8627 35.9917 64.7261 33.851C64.6048 33.745 64.4937 33.6278 64.3944 33.501C64.1575 33.1489 64.1562 32.786 64.456 32.4719C64.7559 32.1578 65.118 32.1334 65.4787 32.3649C65.6228 32.4708 65.755 32.5918 65.8733 32.7258C68.0258 34.876 70.1775 37.0271 72.3286 39.1791C72.464 39.3145 72.6034 39.4398 72.7388 39.5677C73.9727 38.3721 75.3569 36.3438 75.9065 34.8212C76.1346 34.1888 76.3363 33.5138 76.3688 32.8497C76.5827 28.5337 72.9614 24.6578 68.6322 24.6212C65.654 24.5968 63.5477 26.4336 61.3506 28.2575C61.9875 28.8742 62.5689 29.4274 63.1388 29.9913C63.6573 30.5045 63.7148 30.9628 63.3256 31.3365C62.9473 31.7008 62.5134 31.6432 62.0213 31.1456C61.4548 30.5756 60.8984 29.9947 60.2656 29.3454ZM30.5859 71.5683L29.4832 70.4072C27.9461 71.94 26.3873 73.4829 24.8461 75.0421C24.5137 75.3806 24.5489 75.8376 24.8569 76.1477C25.1784 76.4706 25.6448 76.4862 26.0076 76.1335C27.5542 74.6027 29.0893 73.0578 30.5859 71.5683Z" fill="white" stroke="white" stroke-miterlimit="10"/>
<path d="M57.1327 51.2563C56.3162 50.9158 55.7817 51.4229 55.3303 52.2377C55.0437 52.7454 54.6824 53.2072 54.2586 53.6078C53.6015 54.2326 52.8198 54.1015 52.428 53.282C52.1038 52.603 51.8854 51.8664 51.6912 51.1366C51.5686 50.683 51.3905 50.4221 50.8948 50.3171C50.2377 50.1776 49.5954 49.976 48.9765 49.715C47.8224 49.226 47.6744 48.3182 48.6228 47.5001C49.1694 47.0318 49.7836 46.6304 50.3958 46.2451C50.7119 46.0444 50.789 45.827 50.7722 45.4671C50.7354 44.6924 50.6845 43.9037 50.7843 43.1404C50.9236 42.0701 51.6959 41.7068 52.6356 42.2493C53.2746 42.6186 53.8594 43.0902 54.4341 43.5585C54.7422 43.81 54.9853 43.8703 55.3758 43.7177C56.1116 43.4192 56.8709 43.1818 57.6458 43.008C58.5286 42.8213 59.1461 43.3739 58.9968 44.2636C58.8581 45.0891 58.5426 45.8885 58.268 46.6866C58.1588 47.0037 58.1642 47.2258 58.3926 47.4981C58.8461 48.0386 59.2942 48.5938 59.6652 49.1919C60.3491 50.293 59.966 51.0857 58.6913 51.247C58.2332 51.3045 57.7677 51.2563 57.1327 51.2563ZM57.3263 44.6817C56.8614 44.8523 56.4971 44.9379 56.1809 45.1112C55.059 45.726 54.0951 45.548 53.221 44.6329C52.9772 44.3773 52.6604 44.192 52.2833 43.901C52.3188 44.6034 52.3335 45.166 52.3791 45.726C52.438 46.4465 52.1976 46.993 51.5619 47.375C51.0522 47.6814 50.5679 48.0299 49.9852 48.4172C50.6014 48.5892 51.1018 48.7658 51.6175 48.8648C52.4923 49.0327 52.9652 49.5485 53.1413 50.4034C53.2458 50.9091 53.4093 51.4069 53.5767 52.021C53.9116 51.5192 54.199 51.158 54.4093 50.7546C54.8781 49.8602 55.5687 49.4782 56.5781 49.6261C57.0396 49.693 57.5158 49.6843 58.1314 49.7177C57.7054 49.1825 57.3946 48.7423 57.0276 48.3457C56.4582 47.7248 56.3624 47.0652 56.7081 46.3026C56.9231 45.8216 57.0852 45.3152 57.3249 44.6817H57.3263Z" fill="white" stroke="white" stroke-width="0.5" stroke-miterlimit="10"/>
<defs>
<radialGradient id="paint0_radial_793_44019" cx="0" cy="0" r="1" gradientUnits="userSpaceOnUse" gradientTransform="translate(26.5 28.5) rotate(71.8058) scale(75.2629)">
<stop stop-color="#FAFBBD"/>
<stop offset="1" stop-color="#929502"/>
</radialGradient>
<linearGradient id="paint1_linear_793_44019" x1="27.6957" y1="21.9675" x2="72.263" y2="77.746" gradientUnits="userSpaceOnUse">
<stop stop-color="#FFFEFE" stop-opacity="0"/>
<stop offset="1" stop-color="white" stop-opacity="0.68"/>
</linearGradient>
</defs>
</svg>
