<svg width="100" height="100" viewBox="0 0 100 100" fill="none" xmlns="http://www.w3.org/2000/svg">
<circle cx="50" cy="50" r="50" fill="url(#paint0_radial_642_44044)"/>
<path d="M67.48 34.1429C67.48 33.3283 67.1597 32.547 66.5896 31.971C66.0195 31.395 65.2463 31.0714 64.44 31.0714H58.36V28H55.32V31.0714H43.16V28H40.12V31.0714H34.04C33.2337 31.0714 32.4605 31.395 31.8904 31.971C31.3203 32.547 31 33.3283 31 34.1429V64.8571C31 65.6717 31.3203 66.453 31.8904 67.029C32.4605 67.605 33.2337 67.9286 34.04 67.9286H40.12V64.8571H34.04V34.1429H40.12V37.2143H43.16V34.1429H55.32V37.2143H58.36V34.1429H64.44V43.3571H67.48V34.1429Z" fill="white"/>
<path d="M56.84 47.9643L60.7145 55.5476L69 56.7624L62.92 62.6657L64.44 71L56.84 67.0655L49.24 71L50.76 62.6657L44.68 56.7624L53.192 55.5476L56.84 47.9643Z" fill="white"/>
<path d="M67.48 34.1429C67.48 33.3283 67.1597 32.547 66.5896 31.971C66.0195 31.395 65.2463 31.0714 64.44 31.0714H58.36V28H55.32V31.0714H43.16V28H40.12V31.0714H34.04C33.2337 31.0714 32.4605 31.395 31.8904 31.971C31.3203 32.547 31 33.3283 31 34.1429V64.8571C31 65.6717 31.3203 66.453 31.8904 67.029C32.4605 67.605 33.2337 67.9286 34.04 67.9286H40.12V64.8571H34.04V34.1429H40.12V37.2143H43.16V34.1429H55.32V37.2143H58.36V34.1429H64.44V43.3571H67.48V34.1429Z" stroke="white"/>
<path d="M56.84 47.9643L60.7145 55.5476L69 56.7624L62.92 62.6657L64.44 71L56.84 67.0655L49.24 71L50.76 62.6657L44.68 56.7624L53.192 55.5476L56.84 47.9643Z" stroke="white"/>
<path fill-rule="evenodd" clip-rule="evenodd" d="M72.2628 77.7459C93.8364 60.5085 101.349 34.0484 89.0416 18.6456C76.7347 3.24275 49.2692 4.72993 27.6956 21.9673C6.12199 39.2047 -1.39014 65.6648 10.9168 81.0676C23.2237 96.4704 50.6892 94.9832 72.2628 77.7459Z" fill="url(#paint1_linear_642_44044)" fill-opacity="0.2"/>
<defs>
<radialGradient id="paint0_radial_642_44044" cx="0" cy="0" r="1" gradientUnits="userSpaceOnUse" gradientTransform="translate(26.5 28.5) rotate(71.8058) scale(75.2629)">
<stop stop-color="#FFD482"/>
<stop offset="1" stop-color="#C47220"/>
</radialGradient>
<linearGradient id="paint1_linear_642_44044" x1="27.6957" y1="21.9675" x2="72.263" y2="77.746" gradientUnits="userSpaceOnUse">
<stop stop-color="white" stop-opacity="0"/>
<stop offset="1" stop-color="white"/>
</linearGradient>
</defs>
</svg>
