<svg width="100" height="100" viewBox="0 0 100 100" fill="none" xmlns="http://www.w3.org/2000/svg">
<circle cx="50" cy="50" r="50" fill="url(#paint0_radial_640_44028)"/>
<path d="M37.125 68C35.9906 68 35.0199 67.5863 34.2127 66.7589C33.4042 65.9301 33 64.9343 33 63.7714V44.7429C33 44.0733 33.1464 43.439 33.4393 42.84C33.7308 42.241 34.1344 41.7476 34.65 41.36L47.025 31.8457C47.4031 31.5638 47.7984 31.3524 48.2109 31.2114C48.6234 31.0705 49.0531 31 49.5 31C49.9469 31 50.3766 31.0705 50.7891 31.2114C51.2016 31.3524 51.5969 31.5638 51.975 31.8457L64.35 41.36C64.8656 41.7476 65.2699 42.241 65.5628 42.84C65.8543 43.439 66 44.0733 66 44.7429V63.7714C66 64.9343 65.5964 65.9301 64.7893 66.7589C63.9808 67.5863 63.0094 68 61.875 68H53.625V53.2H45.375V68H37.125Z" fill="white"/>
<path fill-rule="evenodd" clip-rule="evenodd" d="M72.6295 77.5676C94.2031 60.3303 101.715 33.8702 89.4083 18.4674C77.1014 3.06453 49.6359 4.55171 28.0623 21.7891C6.48869 39.0264 -1.02344 65.4865 11.2835 80.8894C23.5904 96.2922 51.0559 94.805 72.6295 77.5676Z" fill="url(#paint1_linear_640_44028)" fill-opacity="0.2"/>
<defs>
<radialGradient id="paint0_radial_640_44028" cx="0" cy="0" r="1" gradientUnits="userSpaceOnUse" gradientTransform="translate(26.5 28.5) rotate(71.8058) scale(75.2629)">
<stop stop-color="#9694FF"/>
<stop offset="1" stop-color="#222155"/>
</radialGradient>
<linearGradient id="paint1_linear_640_44028" x1="28.0624" y1="21.7892" x2="72.6297" y2="77.5678" gradientUnits="userSpaceOnUse">
<stop stop-color="white" stop-opacity="0"/>
<stop offset="1" stop-color="#817FFC"/>
</linearGradient>
</defs>
</svg>
