<svg width="100" height="100" viewBox="0 0 100 100" fill="none" xmlns="http://www.w3.org/2000/svg">
<circle cx="50" cy="50" r="50" fill="url(#paint0_radial_640_44028)"/>
<path d="M38.125 68C36.9906 68 36.0199 67.5863 35.2127 66.7589C34.4042 65.9301 34 64.9343 34 63.7714V44.7429C34 44.0733 34.1464 43.439 34.4393 42.84C34.7308 42.241 35.1344 41.7476 35.65 41.36L48.025 31.8457C48.4031 31.5638 48.7984 31.3524 49.2109 31.2114C49.6234 31.0705 50.0531 31 50.5 31C50.9469 31 51.3766 31.0705 51.7891 31.2114C52.2016 31.3524 52.5969 31.5638 52.975 31.8457L65.35 41.36C65.8656 41.7476 66.2699 42.241 66.5628 42.84C66.8543 43.439 67 44.0733 67 44.7429V63.7714C67 64.9343 66.5964 65.9301 65.7893 66.7589C64.9808 67.5863 64.0094 68 62.875 68H54.625V53.2H46.375V68H38.125Z" fill="#D4D3FF"/>
<path fill-rule="evenodd" clip-rule="evenodd" d="M72.6295 77.5676C94.2031 60.3303 101.715 33.8702 89.4083 18.4674C77.1014 3.06453 49.6359 4.55171 28.0623 21.7891C6.48869 39.0264 -1.02344 65.4865 11.2835 80.8894C23.5904 96.2922 51.0559 94.805 72.6295 77.5676Z" fill="url(#paint1_linear_640_44028)" fill-opacity="0.2"/>
<defs>
<radialGradient id="paint0_radial_640_44028" cx="0" cy="0" r="1" gradientUnits="userSpaceOnUse" gradientTransform="translate(26.5 28.5) rotate(71.8058) scale(75.2629)">
<stop stop-color="#9694FF"/>
<stop offset="1" stop-color="#222155"/>
</radialGradient>
<linearGradient id="paint1_linear_640_44028" x1="28.0624" y1="21.7892" x2="72.6297" y2="77.5678" gradientUnits="userSpaceOnUse">
<stop stop-color="#908DFF" stop-opacity="0"/>
<stop offset="1" stop-color="#A9A7FF" stop-opacity="0.68"/>
</linearGradient>
</defs>
</svg>
