<svg width="100" height="100" viewBox="0 0 100 100" fill="none" xmlns="http://www.w3.org/2000/svg">
<circle cx="50" cy="50" r="50" fill="url(#paint0_radial_705_44000)"/>
<path fill-rule="evenodd" clip-rule="evenodd" d="M72.2628 77.7459C93.8364 60.5085 101.349 34.0484 89.0416 18.6456C76.7347 3.24275 49.2692 4.72993 27.6956 21.9673C6.12199 39.2047 -1.39014 65.6648 10.9168 81.0676C23.2237 96.4704 50.6892 94.9832 72.2628 77.7459Z" fill="url(#paint1_linear_705_44000)" fill-opacity="0.2"/>
<path d="M49.3371 36.0708L47.347 34.0808M54.6431 41.3768L53.316 40.0509M59.9491 46.684L58.6232 45.3569M65.9193 52.653L63.9292 50.6629M63.265 36.741C62.2623 35.7379 61.6752 34.3933 61.6211 32.976C61.567 31.5586 62.0499 30.1732 62.9733 29.0966C63.0497 29.007 63.0894 28.8919 63.0845 28.7744C63.0796 28.6568 63.0304 28.5454 62.9468 28.4626L57.6275 23.1373C57.5396 23.0494 57.4204 23 57.2961 23C57.1717 23 57.0525 23.0494 56.9646 23.1373L48.4861 31.6158C48.1732 31.9285 47.9376 32.3099 47.7978 32.7295C47.6585 33.1502 47.4232 33.5326 47.1104 33.8464C46.7976 34.1603 46.416 34.3969 45.9958 34.5376C45.5758 34.6775 45.1941 34.9131 44.8808 35.2259L23.1373 56.9646C23.0494 57.0525 23 57.1717 23 57.2961C23 57.4204 23.0494 57.5396 23.1373 57.6275L28.4565 62.9468C28.5394 63.0304 28.6508 63.0796 28.7683 63.0845C28.8859 63.0894 29.001 63.0497 29.0905 62.9733C30.1669 62.0489 31.5527 61.5652 32.9705 61.619C34.3883 61.6727 35.7335 62.26 36.7367 63.2633C37.74 64.2665 38.3273 65.6117 38.381 67.0295C38.4348 68.4473 37.9511 69.8331 37.0267 70.9094C36.9503 70.999 36.9106 71.1141 36.9155 71.2317C36.9204 71.3492 36.9696 71.4606 37.0532 71.5435L42.3725 76.8627C42.4604 76.9506 42.5796 77 42.7039 77C42.8282 77 42.9475 76.9506 43.0354 76.8627L64.7802 55.1192C65.0929 54.8059 65.3285 54.4242 65.4684 54.0042C65.6077 53.5836 65.8431 53.2012 66.1559 52.8873C66.4687 52.5735 66.8503 52.3368 67.2705 52.1962C67.6901 52.0564 68.0715 51.8207 68.3842 51.5079L76.8627 43.0294C76.9506 42.9415 77 42.8222 77 42.6979C77 42.5736 76.9506 42.4544 76.8627 42.3664L71.5435 37.0472C71.4606 36.9636 71.3492 36.9144 71.2317 36.9095C71.1141 36.9046 70.999 36.9443 70.9094 37.0206C69.8344 37.9456 68.4497 38.4307 67.0324 38.3788C65.6152 38.327 64.2697 37.742 63.265 36.741Z" stroke="white" stroke-width="3" stroke-miterlimit="10" stroke-linecap="round"/>
<defs>
<radialGradient id="paint0_radial_705_44000" cx="0" cy="0" r="1" gradientUnits="userSpaceOnUse" gradientTransform="translate(26.5 28.5) rotate(71.8058) scale(75.2629)">
<stop stop-color="#80FFE4"/>
<stop offset="1" stop-color="#117067"/>
</radialGradient>
<linearGradient id="paint1_linear_705_44000" x1="27.6957" y1="21.9675" x2="72.263" y2="77.746" gradientUnits="userSpaceOnUse">
<stop stop-color="white" stop-opacity="0"/>
<stop offset="1" stop-color="white" stop-opacity="0.68"/>
</linearGradient>
</defs>
</svg>
