<svg width="71" height="71" viewBox="0 0 71 71" fill="none" xmlns="http://www.w3.org/2000/svg">
<rect x="0.090332" y="0.250732" width="70" height="70" rx="10" fill="#2D122D"/>
<path d="M35.0903 15.2507C29.6628 15.2507 28.9803 15.2757 26.8478 15.3707C24.7153 15.4707 23.2628 15.8057 21.9903 16.3007C20.6556 16.8028 19.4466 17.5903 18.4478 18.6082C17.4305 19.6075 16.6431 20.8163 16.1403 22.1507C15.6453 23.4207 15.3078 24.8757 15.2103 27.0007C15.1153 29.1382 15.0903 29.8182 15.0903 35.2532C15.0903 40.6832 15.1153 41.3632 15.2103 43.4957C15.3103 45.6257 15.6453 47.0782 16.1403 48.3507C16.6528 49.6657 17.3353 50.7807 18.4478 51.8932C19.5578 53.0057 20.6728 53.6907 21.9878 54.2007C23.2628 54.6957 24.7128 55.0332 26.8428 55.1307C28.9778 55.2257 29.6578 55.2507 35.0903 55.2507C40.5228 55.2507 41.2003 55.2257 43.3353 55.1307C45.4628 55.0307 46.9203 54.6957 48.1928 54.2007C49.5267 53.6984 50.7349 52.9109 51.7328 51.8932C52.8453 50.7807 53.5278 49.6657 54.0403 48.3507C54.5328 47.0782 54.8703 45.6257 54.9703 43.4957C55.0653 41.3632 55.0903 40.6832 55.0903 35.2507C55.0903 29.8182 55.0653 29.1382 54.9703 27.0032C54.8703 24.8757 54.5328 23.4207 54.0403 22.1507C53.5376 20.8163 52.7502 19.6074 51.7328 18.6082C50.7344 17.5899 49.5253 16.8023 48.1903 16.3007C46.9153 15.8057 45.4603 15.4682 43.3328 15.3707C41.1978 15.2757 40.5203 15.2507 35.0853 15.2507H35.0928H35.0903ZM33.2978 18.8557H35.0928C40.4328 18.8557 41.0653 18.8732 43.1728 18.9707C45.1228 19.0582 46.1828 19.3857 46.8878 19.6582C47.8203 20.0207 48.4878 20.4557 49.1878 21.1557C49.8878 21.8557 50.3203 22.5207 50.6828 23.4557C50.9578 24.1582 51.2828 25.2182 51.3703 27.1682C51.4678 29.2757 51.4878 29.9082 51.4878 35.2457C51.4878 40.5832 51.4678 41.2182 51.3703 43.3257C51.2828 45.2757 50.9553 46.3332 50.6828 47.0382C50.3622 47.9066 49.8504 48.6918 49.1853 49.3357C48.4853 50.0357 47.8203 50.4682 46.8853 50.8307C46.1853 51.1057 45.1253 51.4307 43.1728 51.5207C41.0653 51.6157 40.4328 51.6382 35.0928 51.6382C29.7528 51.6382 29.1178 51.6157 27.0103 51.5207C25.0603 51.4307 24.0028 51.1057 23.2978 50.8307C22.4291 50.5105 21.6431 49.9997 20.9978 49.3357C20.3322 48.6908 19.8196 47.9049 19.4978 47.0357C19.2253 46.3332 18.8978 45.2732 18.8103 43.3232C18.7153 41.2157 18.6953 40.5832 18.6953 35.2407C18.6953 29.9007 18.7153 29.2707 18.8103 27.1632C18.9003 25.2132 19.2253 24.1532 19.5003 23.4482C19.8628 22.5157 20.2978 21.8482 20.9978 21.1482C21.6978 20.4482 22.3628 20.0157 23.2978 19.6532C24.0028 19.3782 25.0603 19.0532 27.0103 18.9632C28.8553 18.8782 29.5703 18.8532 33.2978 18.8507V18.8557ZM45.7678 22.1757C45.4527 22.1757 45.1406 22.2378 44.8494 22.3584C44.5582 22.479 44.2936 22.6558 44.0708 22.8787C43.8479 23.1015 43.6711 23.3661 43.5505 23.6573C43.4299 23.9485 43.3678 24.2606 43.3678 24.5757C43.3678 24.8909 43.4299 25.203 43.5505 25.4942C43.6711 25.7854 43.8479 26.0499 44.0708 26.2728C44.2936 26.4956 44.5582 26.6724 44.8494 26.793C45.1406 26.9137 45.4527 26.9757 45.7678 26.9757C46.4044 26.9757 47.0148 26.7229 47.4649 26.2728C47.915 25.8227 48.1678 25.2123 48.1678 24.5757C48.1678 23.9392 47.915 23.3288 47.4649 22.8787C47.0148 22.4286 46.4044 22.1757 45.7678 22.1757ZM35.0928 24.9807C33.7305 24.9595 32.3776 25.2094 31.1128 25.7161C29.848 26.2227 28.6966 26.9759 27.7257 27.9318C26.7548 28.8877 25.9837 30.0271 25.4574 31.2839C24.9311 32.5406 24.6601 33.8895 24.6601 35.252C24.6601 36.6145 24.9311 37.9633 25.4574 39.2201C25.9837 40.4768 26.7548 41.6163 27.7257 42.5722C28.6966 43.5281 29.848 44.2812 31.1128 44.7879C32.3776 45.2945 33.7305 45.5445 35.0928 45.5232C37.7892 45.4812 40.3609 44.3805 42.2528 42.4589C44.1447 40.5372 45.2051 37.9487 45.2051 35.252C45.2051 32.5553 44.1447 29.9668 42.2528 28.0451C40.3609 26.1234 37.7892 25.0228 35.0928 24.9807ZM35.0928 28.5832C36.8612 28.5832 38.5571 29.2857 39.8075 30.5361C41.0579 31.7865 41.7603 33.4824 41.7603 35.2507C41.7603 37.0191 41.0579 38.715 39.8075 39.9654C38.5571 41.2158 36.8612 41.9182 35.0928 41.9182C33.3245 41.9182 31.6286 41.2158 30.3782 39.9654C29.1278 38.715 28.4253 37.0191 28.4253 35.2507C28.4253 33.4824 29.1278 31.7865 30.3782 30.5361C31.6286 29.2857 33.3245 28.5832 35.0928 28.5832Z" fill="#EADDCE"/>
</svg>
