<svg width="70" height="71" viewBox="0 0 70 71" fill="none" xmlns="http://www.w3.org/2000/svg">
<rect y="0.250732" width="70" height="70" rx="10" fill="#2D122D"/>
<path d="M55 23.0748C53.5277 23.744 51.9407 24.1838 50.2964 24.3941C51.979 23.3808 53.2792 21.7746 53.891 19.8435C52.304 20.7995 50.5449 21.4687 48.6903 21.8511C47.1797 20.2068 45.0574 19.2507 42.6482 19.2507C38.1549 19.2507 34.4837 22.9219 34.4837 27.4534C34.4837 28.1035 34.5602 28.7345 34.6941 29.3272C27.8872 28.983 21.826 25.7134 17.7916 20.7612C17.0841 21.9658 16.6826 23.3808 16.6826 24.8721C16.6826 27.7211 18.1166 30.245 20.3346 31.679C18.9771 31.679 17.7151 31.2966 16.6061 30.723V30.7804C16.6061 34.7574 19.4359 38.0844 23.1836 38.8301C21.9804 39.1594 20.7172 39.2052 19.4933 38.9639C20.0126 40.5939 21.0297 42.0202 22.4016 43.0422C23.7734 44.0642 25.4311 44.6306 27.1415 44.6618C24.2421 46.9571 20.6482 48.1978 16.9503 48.18C16.3002 48.18 15.6501 48.1417 15 48.0653C18.6329 50.398 22.9541 51.7555 27.5813 51.7555C42.6482 51.7555 50.9273 39.2507 50.9273 28.4094C50.9273 28.0461 50.9273 27.702 50.9082 27.3387C52.5143 26.1915 53.891 24.7383 55 23.0748Z" fill="#EADDCE"/>
</svg>
