<svg width="1642" height="472" viewBox="0 0 1642 472" fill="none" xmlns="http://www.w3.org/2000/svg">
<path fill-rule="evenodd" clip-rule="evenodd" d="M46.8281 237.454C0.413921 267.386 -12.9478 329.276 16.9839 375.691C46.9132 422.101 108.854 435.431 155.267 405.508M155.267 405.508L155.485 405.365C155.706 405.223 156.058 404.996 156.538 404.69C157.496 404.076 158.962 403.14 160.9 401.91C164.775 399.45 170.532 395.815 177.887 391.231C192.607 382.054 213.665 369.109 238.796 354.174C289.372 324.118 355.109 286.801 418.35 255.932C425.382 252.499 432.244 249.218 438.924 246.089C410.898 287.898 417.678 336.575 435.709 367.782C455.726 402.429 502.303 436.737 561.734 422.522L1038.96 308.372C1039.08 317.239 1039.7 326.275 1040.96 335.337C1046.92 377.955 1067.86 421.651 1112.18 448.354C1151.9 472.279 1194.54 472.646 1224.48 468.966C1283.44 461.72 1347.15 431.701 1397.2 404.212C1450.39 374.988 1501.71 340.84 1539.03 314.613C1557.87 301.373 1573.54 289.874 1584.57 281.624C1590.09 277.494 1594.47 274.165 1597.53 271.824C1599.06 270.653 1600.26 269.727 1601.1 269.072L1601.65 268.652L1602.11 268.292L1602.54 267.954C1602.56 267.943 1602.17 268.243 1602.11 268.292L1602.57 267.933C1646.08 233.916 1653.77 171.069 1619.76 127.56C1585.74 84.0588 1522.91 76.3592 1479.41 110.356L1479.4 110.359C1479.39 110.364 1479.39 110.369 1479.38 110.374L1479.29 110.442C1479.21 110.511 1479.07 110.617 1478.88 110.76L1478.68 110.921C1478.09 111.374 1477.16 112.09 1475.92 113.044C1473.42 114.954 1469.66 117.817 1464.8 121.453C1455.06 128.733 1441 139.055 1424.03 150.982C1389.74 175.086 1345.09 204.644 1300.9 228.919C1281.59 239.526 1264.32 248.014 1249.39 254.502C1251.54 247.791 1253.82 241.37 1256.02 235.557C1286.65 154.604 1216.76 60.2034 1122.08 82.8482L706.544 182.243C715.452 144.739 719.5 82.4557 669.201 36.6712C624.35 -4.15498 566.879 -1.02524 539.192 2.39191C475.643 10.235 396.997 43.8002 330.62 76.2001C260.405 110.473 189.411 150.871 136.621 182.243C110.068 198.023 87.7847 211.72 72.0835 221.508C64.2274 226.406 58.0041 230.334 53.7018 233.065C51.5502 234.431 49.8778 235.499 48.7205 236.24C48.1418 236.61 47.6918 236.899 47.3749 237.102L46.8906 237.414L46.8594 237.434L46.8281 237.454M1196.72 270.692C1196.73 270.679 1197 270.667 1197.49 270.695C1196.96 270.719 1196.71 270.705 1196.72 270.692ZM569.908 200.538C569.849 200.602 568.937 200.661 567.355 200.527C569.177 200.408 569.968 200.475 569.908 200.538ZM512.49 133.744C512.538 133.392 512.575 133.205 512.581 133.2C512.588 133.195 512.564 133.37 512.49 133.744Z" fill="url(#paint0_linear_337_239)"/>
<path d="M1602.11 268.292L1601.65 268.652L1601.1 269.072C1600.26 269.727 1599.06 270.653 1597.53 271.824C1594.47 274.165 1590.09 277.494 1584.57 281.624C1573.54 289.874 1557.87 301.373 1539.03 314.613C1501.71 340.84 1450.39 374.988 1397.2 404.212C1347.15 431.701 1283.44 461.72 1224.48 468.966C1194.54 472.646 1151.9 472.279 1112.18 448.354C1067.86 421.651 1046.92 377.955 1040.96 335.337C1039.7 326.275 1039.08 317.239 1038.96 308.372L561.734 422.522C502.303 436.737 455.726 402.429 435.709 367.782C417.678 336.575 410.898 287.898 438.924 246.089C432.244 249.218 425.382 252.499 418.35 255.932C355.109 286.801 289.372 324.118 238.796 354.174C213.665 369.109 192.607 382.054 177.887 391.231C170.532 395.815 164.775 399.45 160.9 401.91C158.962 403.14 157.496 404.076 156.538 404.69C156.058 404.996 155.706 405.223 155.485 405.365L155.267 405.508C108.854 435.431 46.9132 422.101 16.9839 375.691C-12.9478 329.276 0.413921 267.386 46.8281 237.454L46.8594 237.434L46.8906 237.414L47.3749 237.102C47.6918 236.899 48.1418 236.61 48.7205 236.24C49.8778 235.499 51.5502 234.431 53.7018 233.065C58.0041 230.334 64.2274 226.406 72.0835 221.508C87.7847 211.72 110.068 198.023 136.621 182.243C189.411 150.871 260.405 110.473 330.62 76.2001C396.997 43.8002 475.643 10.235 539.192 2.39191C566.879 -1.02524 624.35 -4.15498 669.201 36.6712C719.5 82.4557 715.452 144.739 706.544 182.243L1122.08 82.8482C1216.76 60.2034 1286.65 154.604 1256.02 235.557C1253.82 241.37 1251.54 247.791 1249.39 254.502C1264.32 248.014 1281.59 239.526 1300.9 228.919C1345.09 204.644 1389.74 175.086 1424.03 150.982C1441 139.055 1455.06 128.733 1464.8 121.453C1469.66 117.817 1473.42 114.954 1475.92 113.044C1477.16 112.09 1478.09 111.374 1478.68 110.921L1478.88 110.76C1479.07 110.617 1479.21 110.511 1479.29 110.442L1479.38 110.374C1479.39 110.369 1479.39 110.364 1479.4 110.359L1479.41 110.356C1522.91 76.3592 1585.74 84.0588 1619.76 127.56C1653.77 171.069 1646.08 233.916 1602.57 267.933L1602.11 268.292ZM1602.11 268.292L1602.54 267.954C1602.56 267.943 1602.17 268.243 1602.11 268.292ZM1196.72 270.692C1196.73 270.679 1197 270.667 1197.49 270.695C1196.96 270.719 1196.71 270.705 1196.72 270.692ZM569.908 200.538C569.849 200.602 568.937 200.661 567.355 200.527C569.177 200.408 569.968 200.475 569.908 200.538ZM512.49 133.744C512.538 133.392 512.575 133.205 512.581 133.2C512.588 133.195 512.564 133.37 512.49 133.744Z" stroke="url(#paint1_linear_337_239)" stroke-linecap="round"/>
<path d="M1602.11 268.292L1601.65 268.652L1601.1 269.072C1600.26 269.727 1599.06 270.653 1597.53 271.824C1594.47 274.165 1590.09 277.494 1584.57 281.624C1573.54 289.874 1557.87 301.373 1539.03 314.613C1501.71 340.84 1450.39 374.988 1397.2 404.212C1347.15 431.701 1283.44 461.72 1224.48 468.966C1194.54 472.646 1151.9 472.279 1112.18 448.354C1067.86 421.651 1046.92 377.955 1040.96 335.337C1039.7 326.275 1039.08 317.239 1038.96 308.372L561.734 422.522C502.303 436.737 455.726 402.429 435.709 367.782C417.678 336.575 410.898 287.898 438.924 246.089C432.244 249.218 425.382 252.499 418.35 255.932C355.109 286.801 289.372 324.118 238.796 354.174C213.665 369.109 192.607 382.054 177.887 391.231C170.532 395.815 164.775 399.45 160.9 401.91C158.962 403.14 157.496 404.076 156.538 404.69C156.058 404.996 155.706 405.223 155.485 405.365L155.267 405.508C108.854 435.431 46.9132 422.101 16.9839 375.691C-12.9478 329.276 0.413921 267.386 46.8281 237.454L46.8594 237.434L46.8906 237.414L47.3749 237.102C47.6918 236.899 48.1418 236.61 48.7205 236.24C49.8778 235.499 51.5502 234.431 53.7018 233.065C58.0041 230.334 64.2274 226.406 72.0835 221.508C87.7847 211.72 110.068 198.023 136.621 182.243C189.411 150.871 260.405 110.473 330.62 76.2001C396.997 43.8002 475.643 10.235 539.192 2.39191C566.879 -1.02524 624.35 -4.15498 669.201 36.6712C719.5 82.4557 715.452 144.739 706.544 182.243L1122.08 82.8482C1216.76 60.2034 1286.65 154.604 1256.02 235.557C1253.82 241.37 1251.54 247.791 1249.39 254.502C1264.32 248.014 1281.59 239.526 1300.9 228.919C1345.09 204.644 1389.74 175.086 1424.03 150.982C1441 139.055 1455.06 128.733 1464.8 121.453C1469.66 117.817 1473.42 114.954 1475.92 113.044C1477.16 112.09 1478.09 111.374 1478.68 110.921L1478.88 110.76C1479.07 110.617 1479.21 110.511 1479.29 110.442L1479.38 110.374C1479.39 110.369 1479.39 110.364 1479.4 110.359L1479.41 110.356C1522.91 76.3592 1585.74 84.0588 1619.76 127.56C1653.77 171.069 1646.08 233.916 1602.57 267.933L1602.11 268.292ZM1602.11 268.292L1602.54 267.954C1602.56 267.943 1602.17 268.243 1602.11 268.292ZM1196.72 270.692C1196.73 270.679 1197 270.667 1197.49 270.695C1196.96 270.719 1196.71 270.705 1196.72 270.692ZM569.908 200.538C569.849 200.602 568.937 200.661 567.355 200.527C569.177 200.408 569.968 200.475 569.908 200.538ZM512.49 133.744C512.538 133.392 512.575 133.205 512.581 133.2C512.588 133.195 512.564 133.37 512.49 133.744Z" stroke="url(#paint2_linear_337_239)" stroke-opacity="0.5" stroke-linecap="round"/>
<defs>
<linearGradient id="paint0_linear_337_239" x1="821" y1="100.548" x2="821" y2="370.685" gradientUnits="userSpaceOnUse">
<stop stop-color="#2C1B3B"/>
<stop offset="1" stop-color="#2C1B3B" stop-opacity="0.34"/>
</linearGradient>
<linearGradient id="paint1_linear_337_239" x1="1580.1" y1="83.2938" x2="793.16" y2="285.318" gradientUnits="userSpaceOnUse">
<stop stop-color="#F8BCBC"/>
<stop offset="1" stop-opacity="0"/>
</linearGradient>
<linearGradient id="paint2_linear_337_239" x1="217.597" y1="136.929" x2="609.37" y2="148.896" gradientUnits="userSpaceOnUse">
<stop stop-color="#F6C8AD"/>
<stop offset="1" stop-color="#E4B3A3" stop-opacity="0"/>
</linearGradient>
</defs>
</svg>
